<mxfile host="Electron" agent="Mozilla/5.0 (Windows NT 10.0; Win64; x64) AppleWebKit/537.36 (KHTML, like Gecko) draw.io/26.2.15 Chrome/134.0.6998.205 Electron/35.2.1 Safari/537.36" version="26.2.15">
  <diagram name="Page-1" id="2tu_ZBxGwyOpY8DsHaL9">
    <mxGraphModel dx="2934" dy="1252" grid="1" gridSize="10" guides="1" tooltips="1" connect="1" arrows="1" fold="1" page="1" pageScale="1" pageWidth="850" pageHeight="1100" math="0" shadow="0">
      <root>
        <mxCell id="0" />
        <mxCell id="1" parent="0" />
        <mxCell id="zZ7caNbCBTR6ZS_fgDEp-18" value="" style="edgeStyle=orthogonalEdgeStyle;rounded=0;orthogonalLoop=1;jettySize=auto;html=1;entryX=0.5;entryY=1;entryDx=0;entryDy=0;endArrow=diamondThin;endFill=0;endSize=13;" edge="1" parent="1" source="Ur14ihZcDdLE6UfBeS0k-3" target="Ur14ihZcDdLE6UfBeS0k-7">
          <mxGeometry relative="1" as="geometry" />
        </mxCell>
        <mxCell id="Ur14ihZcDdLE6UfBeS0k-3" value="Question" style="swimlane;fontSize=14;startSize=23;" parent="1" vertex="1">
          <mxGeometry x="-60" y="820" width="290" height="230" as="geometry" />
        </mxCell>
        <mxCell id="Ur14ihZcDdLE6UfBeS0k-4" value="&lt;div&gt;- text: string&lt;/div&gt;&lt;div&gt;- choices: vector&amp;lt;string&amp;gt;&lt;/div&gt;&lt;div&gt;- isMultipleChoice: bool&lt;/div&gt;" style="text;html=1;align=left;verticalAlign=middle;resizable=0;points=[];autosize=1;strokeColor=none;fillColor=none;fontSize=15;" parent="Ur14ihZcDdLE6UfBeS0k-3" vertex="1">
          <mxGeometry y="25" width="190" height="70" as="geometry" />
        </mxCell>
        <mxCell id="Ur14ihZcDdLE6UfBeS0k-5" value="" style="endArrow=none;html=1;rounded=0;" parent="Ur14ihZcDdLE6UfBeS0k-3" edge="1">
          <mxGeometry width="50" height="50" relative="1" as="geometry">
            <mxPoint y="90" as="sourcePoint" />
            <mxPoint x="290" y="90" as="targetPoint" />
          </mxGeometry>
        </mxCell>
        <mxCell id="Ur14ihZcDdLE6UfBeS0k-6" value="+ &amp;lt;&amp;lt;constructor&amp;gt;&amp;gt; Question(string, bool)&lt;div&gt;+ addChoice(string): void&lt;/div&gt;&lt;div&gt;+ display(): void&lt;/div&gt;&lt;div&gt;+ getIsMultipleChoice(): bool&lt;/div&gt;&lt;div&gt;+ getChoices(): vector&amp;lt;string&amp;gt;&lt;/div&gt;&lt;div&gt;+ getChoiceText(int): string&lt;/div&gt;&lt;div&gt;+ getText(): string&lt;/div&gt;" style="text;html=1;align=left;verticalAlign=middle;resizable=0;points=[];autosize=1;strokeColor=none;fillColor=none;fontSize=15;" parent="Ur14ihZcDdLE6UfBeS0k-3" vertex="1">
          <mxGeometry y="90" width="290" height="140" as="geometry" />
        </mxCell>
        <mxCell id="Ur14ihZcDdLE6UfBeS0k-7" value="Survey" style="swimlane;fontSize=14;startSize=23;" parent="1" vertex="1">
          <mxGeometry x="-60" y="490" width="290" height="220" as="geometry" />
        </mxCell>
        <mxCell id="Ur14ihZcDdLE6UfBeS0k-8" value="&lt;div&gt;- title: string&lt;/div&gt;&lt;div&gt;- questions: vector&amp;lt;Question&amp;gt;&lt;/div&gt;" style="text;html=1;align=left;verticalAlign=middle;resizable=0;points=[];autosize=1;strokeColor=none;fillColor=none;fontSize=15;" parent="Ur14ihZcDdLE6UfBeS0k-7" vertex="1">
          <mxGeometry y="35" width="220" height="50" as="geometry" />
        </mxCell>
        <mxCell id="Ur14ihZcDdLE6UfBeS0k-9" value="" style="endArrow=none;html=1;rounded=0;" parent="Ur14ihZcDdLE6UfBeS0k-7" edge="1">
          <mxGeometry width="50" height="50" relative="1" as="geometry">
            <mxPoint y="90" as="sourcePoint" />
            <mxPoint x="290" y="90" as="targetPoint" />
          </mxGeometry>
        </mxCell>
        <mxCell id="Ur14ihZcDdLE6UfBeS0k-10" value="+ &amp;lt;&amp;lt;constructor&amp;gt;&amp;gt; Survey(string)&lt;div&gt;+ addQuestion(Question): void&lt;/div&gt;&lt;div&gt;+ display(): void&lt;/div&gt;&lt;div&gt;+ getQuestion(int): Question&lt;/div&gt;&lt;div&gt;+ getAllQuestions(): vector&amp;lt;Question&amp;gt;&lt;/div&gt;&lt;div&gt;+ getTitle(): string&lt;br&gt;&lt;/div&gt;" style="text;html=1;align=left;verticalAlign=middle;resizable=0;points=[];autosize=1;strokeColor=none;fillColor=none;fontSize=15;" parent="Ur14ihZcDdLE6UfBeS0k-7" vertex="1">
          <mxGeometry y="90" width="280" height="120" as="geometry" />
        </mxCell>
        <mxCell id="Ur14ihZcDdLE6UfBeS0k-11" value="Response" style="swimlane;fontSize=14;startSize=23;" parent="1" vertex="1">
          <mxGeometry x="340" y="510" width="290" height="220" as="geometry" />
        </mxCell>
        <mxCell id="Ur14ihZcDdLE6UfBeS0k-12" value="&lt;div&gt;- userName: string&lt;/div&gt;&lt;div&gt;- answers: map&amp;lt;int, string&amp;gt;&lt;/div&gt;&lt;div&gt;- surveyIndex: int&lt;/div&gt;" style="text;html=1;align=left;verticalAlign=middle;resizable=0;points=[];autosize=1;strokeColor=none;fillColor=none;fontSize=15;" parent="Ur14ihZcDdLE6UfBeS0k-11" vertex="1">
          <mxGeometry y="25" width="200" height="70" as="geometry" />
        </mxCell>
        <mxCell id="Ur14ihZcDdLE6UfBeS0k-13" value="" style="endArrow=none;html=1;rounded=0;" parent="Ur14ihZcDdLE6UfBeS0k-11" edge="1">
          <mxGeometry width="50" height="50" relative="1" as="geometry">
            <mxPoint y="90" as="sourcePoint" />
            <mxPoint x="290" y="90" as="targetPoint" />
          </mxGeometry>
        </mxCell>
        <mxCell id="Ur14ihZcDdLE6UfBeS0k-14" value="+ &amp;lt;&amp;lt;constructor&amp;gt;&amp;gt; Response(string, int)&lt;div&gt;+ recordAnswer(int, string): void&lt;/div&gt;&lt;div&gt;+ display(const Survey&amp;amp;): void&lt;/div&gt;&lt;div&gt;+ getUser(): string&lt;/div&gt;&lt;div&gt;+ getSurveyIndex(): int&lt;/div&gt;&lt;div&gt;+ getAnswers(): map&amp;lt;int, string&amp;gt;&lt;/div&gt;" style="text;html=1;align=left;verticalAlign=middle;resizable=0;points=[];autosize=1;strokeColor=none;fillColor=none;fontSize=15;" parent="Ur14ihZcDdLE6UfBeS0k-11" vertex="1">
          <mxGeometry y="90" width="290" height="120" as="geometry" />
        </mxCell>
        <mxCell id="Ur14ihZcDdLE6UfBeS0k-15" value="Survey_Engine" style="swimlane;fontSize=14;startSize=23;" parent="1" vertex="1">
          <mxGeometry x="330" y="90" width="290" height="240" as="geometry" />
        </mxCell>
        <mxCell id="Ur14ihZcDdLE6UfBeS0k-16" value="- surveys: vector&amp;lt;Survey&amp;gt;&lt;div&gt;- responses: list&amp;lt;Response&amp;gt;&lt;/div&gt;&lt;div&gt;- users: vector&amp;lt;User&amp;gt;&lt;/div&gt;&lt;div&gt;- currentUser: User*&lt;/div&gt;" style="text;html=1;align=left;verticalAlign=middle;resizable=0;points=[];autosize=1;strokeColor=none;fillColor=none;fontSize=15;" parent="Ur14ihZcDdLE6UfBeS0k-15" vertex="1">
          <mxGeometry y="15" width="210" height="90" as="geometry" />
        </mxCell>
        <mxCell id="Ur14ihZcDdLE6UfBeS0k-17" value="" style="endArrow=none;html=1;rounded=0;" parent="Ur14ihZcDdLE6UfBeS0k-15" edge="1">
          <mxGeometry width="50" height="50" relative="1" as="geometry">
            <mxPoint y="100" as="sourcePoint" />
            <mxPoint x="290" y="100" as="targetPoint" />
          </mxGeometry>
        </mxCell>
        <mxCell id="Ur14ihZcDdLE6UfBeS0k-18" value="&lt;div&gt;+ &amp;lt;&amp;lt;constructor&amp;gt;&amp;gt;Survey_Engine()&lt;/div&gt;+ createSurvey(): void&lt;div&gt;+ takeSurvey(): void&lt;/div&gt;&lt;div&gt;+ viewResults(): void&lt;/div&gt;&lt;div&gt;+ saveData(): void&lt;/div&gt;&lt;div&gt;+ loginUser(): void&lt;/div&gt;&lt;div&gt;+ start(): void&lt;/div&gt;" style="text;html=1;align=left;verticalAlign=middle;resizable=0;points=[];autosize=1;strokeColor=none;fillColor=none;fontSize=15;" parent="Ur14ihZcDdLE6UfBeS0k-15" vertex="1">
          <mxGeometry y="100" width="260" height="140" as="geometry" />
        </mxCell>
        <mxCell id="zZ7caNbCBTR6ZS_fgDEp-2" value="User" style="swimlane;fontSize=14;startSize=23;" vertex="1" parent="1">
          <mxGeometry x="740" y="510" width="290" height="230" as="geometry" />
        </mxCell>
        <mxCell id="zZ7caNbCBTR6ZS_fgDEp-3" value="&lt;div&gt;- username: string&lt;/div&gt;&lt;div&gt;- isAdmin: bool&lt;/div&gt;&lt;div&gt;- takenSurveys: vector&amp;lt;int&amp;gt;&lt;/div&gt;" style="text;html=1;align=left;verticalAlign=middle;resizable=0;points=[];autosize=1;strokeColor=none;fillColor=none;fontSize=15;" vertex="1" parent="zZ7caNbCBTR6ZS_fgDEp-2">
          <mxGeometry y="25" width="210" height="70" as="geometry" />
        </mxCell>
        <mxCell id="zZ7caNbCBTR6ZS_fgDEp-4" value="" style="endArrow=none;html=1;rounded=0;" edge="1" parent="zZ7caNbCBTR6ZS_fgDEp-2">
          <mxGeometry width="50" height="50" relative="1" as="geometry">
            <mxPoint y="90" as="sourcePoint" />
            <mxPoint x="290" y="90" as="targetPoint" />
          </mxGeometry>
        </mxCell>
        <mxCell id="zZ7caNbCBTR6ZS_fgDEp-5" value="+ &amp;lt;&amp;lt;constructor&amp;gt;&amp;gt; User()&lt;br&gt;&lt;div&gt;+ &amp;lt;&amp;lt;constructor&amp;gt;&amp;gt; User(string, bool)&lt;/div&gt;&lt;div&gt;+ getUsername(): string&lt;/div&gt;&lt;div&gt;+ getIsAdmin(): bool&lt;/div&gt;&lt;div&gt;+ setIsAdmin(bool): void&lt;/div&gt;&lt;div&gt;+ userToFile(ofstream&amp;amp;): void&lt;/div&gt;&lt;div&gt;+ userFromFile(ifstream&amp;amp;): void&lt;/div&gt;" style="text;html=1;align=left;verticalAlign=middle;resizable=0;points=[];autosize=1;strokeColor=none;fillColor=none;fontSize=15;" vertex="1" parent="zZ7caNbCBTR6ZS_fgDEp-2">
          <mxGeometry y="90" width="260" height="140" as="geometry" />
        </mxCell>
        <mxCell id="zZ7caNbCBTR6ZS_fgDEp-6" value="Record" style="swimlane;fontSize=14;startSize=23;" vertex="1" parent="1">
          <mxGeometry x="360" y="840" width="350" height="150" as="geometry" />
        </mxCell>
        <mxCell id="zZ7caNbCBTR6ZS_fgDEp-9" value="&lt;div&gt;+ saveUsers(vector&amp;lt;User&amp;gt;, string): void&lt;/div&gt;&lt;div&gt;+ loadUsers(string): vector&amp;lt;User&amp;gt;&lt;/div&gt;&lt;div&gt;+ saveSurveys(vector&amp;lt;Survey&amp;gt;, string): void&lt;/div&gt;&lt;div&gt;+ loadSurveys(string): vector&amp;lt;Survey&amp;gt;&lt;/div&gt;&lt;div&gt;+ saveResponses(vector&amp;lt;Response&amp;gt;, string): void&lt;/div&gt;&lt;div&gt;+ loadResponses(string): vector&amp;lt;Response&amp;gt;&amp;nbsp; &amp;nbsp;&lt;/div&gt;" style="text;html=1;align=left;verticalAlign=middle;resizable=0;points=[];autosize=1;strokeColor=none;fillColor=none;fontSize=15;" vertex="1" parent="zZ7caNbCBTR6ZS_fgDEp-6">
          <mxGeometry y="30" width="360" height="120" as="geometry" />
        </mxCell>
        <mxCell id="zZ7caNbCBTR6ZS_fgDEp-14" style="edgeStyle=orthogonalEdgeStyle;rounded=0;orthogonalLoop=1;jettySize=auto;html=1;entryX=0.5;entryY=0;entryDx=0;entryDy=0;startArrow=diamondThin;startFill=0;targetPerimeterSpacing=0;endArrow=none;startSize=13;" edge="1" parent="1" source="Ur14ihZcDdLE6UfBeS0k-18" target="Ur14ihZcDdLE6UfBeS0k-7">
          <mxGeometry relative="1" as="geometry">
            <Array as="points">
              <mxPoint x="460" y="410" />
              <mxPoint x="80" y="410" />
              <mxPoint x="80" y="490" />
            </Array>
          </mxGeometry>
        </mxCell>
        <mxCell id="zZ7caNbCBTR6ZS_fgDEp-15" style="edgeStyle=orthogonalEdgeStyle;rounded=0;orthogonalLoop=1;jettySize=auto;html=1;startArrow=diamondThin;startFill=0;startSize=13;endArrow=none;" edge="1" parent="1" source="Ur14ihZcDdLE6UfBeS0k-18">
          <mxGeometry relative="1" as="geometry">
            <mxPoint x="880" y="510" as="targetPoint" />
            <Array as="points">
              <mxPoint x="460" y="410" />
              <mxPoint x="880" y="410" />
            </Array>
          </mxGeometry>
        </mxCell>
        <mxCell id="zZ7caNbCBTR6ZS_fgDEp-16" style="edgeStyle=orthogonalEdgeStyle;rounded=0;orthogonalLoop=1;jettySize=auto;html=1;startArrow=diamondThin;startFill=0;targetPerimeterSpacing=0;endArrow=none;entryX=0.5;entryY=0;entryDx=0;entryDy=0;startSize=13;" edge="1" parent="1" source="Ur14ihZcDdLE6UfBeS0k-18" target="Ur14ihZcDdLE6UfBeS0k-11">
          <mxGeometry relative="1" as="geometry">
            <Array as="points">
              <mxPoint x="460" y="510" />
            </Array>
          </mxGeometry>
        </mxCell>
      </root>
    </mxGraphModel>
  </diagram>
</mxfile>
